<?xml version="1.0" standalone="no"?>
<!DOCTYPE svg PUBLIC "-//W3C//DTD SVG 1.1//EN" "http://www.w3.org/Graphics/SVG/1.1/DTD/svg11.dtd"><svg t="1734269443882"
  class="icon" viewBox="0 0 1024 1024" version="1.1" xmlns="http://www.w3.org/2000/svg" p-id="20785"
  xmlns:xlink="http://www.w3.org/1999/xlink" width="200" height="200">
  <path
    d="M192 384h640a42.667 42.667 0 0 1 42.667 42.667v362.666A42.667 42.667 0 0 1 832 832H192v106.667A21.333 21.333 0 0 0 213.333 960h725.334A21.333 21.333 0 0 0 960 938.667V308.82l-10.09-10.154H823.38a98.048 98.048 0 0 1-98.048-98.048V72.66L716.715 64H213.333A21.333 21.333 0 0 0 192 85.333V384z m-64 448H42.667A42.667 42.667 0 0 1 0 789.333V426.667A42.667 42.667 0 0 1 42.667 384H128V85.333A85.333 85.333 0 0 1 213.333 0H743.36L1024 282.453v656.214A85.333 85.333 0 0 1 938.667 1024H213.333A85.333 85.333 0 0 1 128 938.667V832z m-15.723-359.51v274.177h44.928V625.323h134.016v-38.4H157.205V510.89h142.08v-38.4H112.277z m223.488 0v274.177h192.768v-38.4H380.31V472.49h-44.544z m202.368 0l97.536 274.177h54.144L787.35 472.49h-48.768l-75.264 223.488h-1.152L586.901 472.49h-48.768z"
    fill="#2c2c2c" p-id="20786"></path>
</svg>