<?xml version="1.0" standalone="no"?>
<!DOCTYPE svg PUBLIC "-//W3C//DTD SVG 1.1//EN" "http://www.w3.org/Graphics/SVG/1.1/DTD/svg11.dtd"><svg class="icon"
  viewBox="0 0 1024 1024" version="1.1" xmlns="http://www.w3.org/2000/svg" xmlns:xlink="http://www.w3.org/1999/xlink"
  width="40" height="40">
  <path d="M1024 0H0v1024h1024V0z" fill="#FFFFFF" fill-opacity=".01" p-id="42390"></path>
  <path
    d="M512 896c212.074667 0 384-171.925333 384-384S724.074667 128 512 128 128 299.925333 128 512s171.925333 384 384 384z"
    fill="#000000" p-id="42391"></path>
  <path
    d="M85.333333 512C85.333333 276.352 276.352 85.333333 512 85.333333s426.666667 191.018667 426.666667 426.666667-191.018667 426.666667-426.666667 426.666667S85.333333 747.648 85.333333 512zM512 170.666667C323.477333 170.666667 170.666667 323.477333 170.666667 512s152.810667 341.333333 341.333333 341.333333 341.333333-152.810667 341.333333-341.333333S700.522667 170.666667 512 170.666667z"
    fill="#000000" p-id="42392"></path>
  <path
    d="M42.666667 384a42.666667 42.666667 0 0 1 42.666666-42.666667h853.333334a42.666667 42.666667 0 1 1 0 85.333334H85.333333a42.666667 42.666667 0 0 1-42.666666-42.666667zM42.666667 640a42.666667 42.666667 0 0 1 42.666666-42.666667h853.333334a42.666667 42.666667 0 1 1 0 85.333334H85.333333a42.666667 42.666667 0 0 1-42.666666-42.666667z"
    fill="#FFFFFF" p-id="42393"></path>
  <path
    d="M446.677333 224.405333C421.610667 295.978667 405.333333 397.653333 405.333333 512c0 114.346667 16.277333 216.021333 41.344 287.594667 12.586667 36.010667 26.624 62.08 40.064 78.336 13.674667 16.533333 22.421333 18.069333 25.258667 18.069333s11.584-1.536 25.258667-18.069333c13.44-16.256 27.456-42.325333 40.064-78.336C602.389333 728.021333 618.666667 626.346667 618.666667 512c0-114.346667-16.277333-216.021333-41.344-287.594667-12.586667-36.010667-26.624-62.08-40.064-78.336C523.584 129.536 514.837333 128 512 128s-11.584 1.536-25.258667 18.069333c-13.44 16.256-27.456 42.325333-40.064 78.336z m-25.685333-132.736C443.050667 65.002667 473.6 42.666667 512 42.666667c38.4 0 68.949333 22.336 91.008 49.002666 22.272 26.922667 40.426667 63.317333 54.869333 104.533334C686.826667 279.04 704 390.698667 704 512s-17.152 232.96-46.144 315.797333c-14.421333 41.216-32.576 77.610667-54.848 104.533334C580.949333 958.997333 550.4 981.333333 512 981.333333c-38.4 0-68.949333-22.336-91.008-49.002666-22.272-26.922667-40.426667-63.317333-54.869333-104.533334C337.173333 744.96 320 633.301333 320 512s17.152-232.96 46.144-315.797333c14.421333-41.216 32.576-77.610667 54.848-104.533334z"
    fill="#FFFFFF" p-id="42394"></path>
</svg>