<?xml version="1.0" standalone="no"?>
<!DOCTYPE svg PUBLIC "-//W3C//DTD SVG 1.1//EN" "http://www.w3.org/Graphics/SVG/1.1/DTD/svg11.dtd"><svg class="icon"
  viewBox="0 0 1024 1024" version="1.1" width="200" height="200">
  <path
    d="M563.2 870.4v102.4H460.8v-102.4h102.4z m456.192-678.912c3.072 4.096 4.608 9.728 4.608 14.848v611.328c0 14.336-11.264 25.6-25.6 25.6-5.12 0-10.752-1.536-14.848-4.608l-428.032-305.664c-11.264-8.192-14.336-24.064-6.144-35.84 1.536-2.56 3.584-4.096 6.144-6.144l428.032-305.664c11.264-8.192 27.648-5.12 35.84 6.144zM4.608 191.488c8.192-11.264 24.064-14.336 35.84-6.144l428.032 305.664c11.264 8.192 14.336 24.064 6.144 35.84-1.536 2.56-3.584 4.096-6.144 6.144L40.448 838.656c-11.264 8.192-27.648 5.632-35.84-6.144-3.072-4.096-4.608-9.728-4.608-14.848V206.336c0-5.632 1.536-10.752 4.608-14.848zM563.2 665.6v102.4H460.8v-102.4h102.4zM102.4 355.328v312.832L321.536 512 102.4 355.328zM563.2 256v102.4H460.8V256h102.4z m0-204.8v102.4H460.8V51.2h102.4z"
    fill="#2c2c2c"></path>
</svg>