<?xml version="1.0" standalone="no"?>
<!DOCTYPE svg PUBLIC "-//W3C//DTD SVG 1.1//EN" "http://www.w3.org/Graphics/SVG/1.1/DTD/svg11.dtd"><svg t="1734269210941"
  class="icon" viewBox="0 0 1024 1024" version="1.1" xmlns="http://www.w3.org/2000/svg" p-id="9344"
  xmlns:xlink="http://www.w3.org/1999/xlink" width="200" height="200">
  <path
    d="M0.2048 848.827733v-339.421866h1018.368v339.421866H0.2048z m825.173333-107.485866v-28.296534h-33.109333v-143.121066h-31.982933l-106.632534 137.489066v33.928534h105.506134v46.967466h33.109333v-46.967466h33.109333z m-266.205866-36.7616c53.179733 0 79.496533-22.6304 79.496533-67.584 0-45.021867-26.282667-67.072-78.916267-67.072h-90.5216v218.385066h35.6352v-84.855466l54.306134 1.1264z m-132.676267 84.855466v-219.477333H384.682667L311.364267 741.034667l-74.069334-171.144534H193.399467v218.385067H229.034667v-150.493867l64.2048 150.493867h30.8224l64.238933-150.493867h1.399467v150.493867l36.7616 1.1264z m164.932267-179.063466a31.9488 31.9488 0 0 1 11.298133 28.296533c1.024 10.6496-3.072 21.162667-11.025067 28.296533-10.3424 6.621867-22.528 9.693867-34.816 8.772267h-52.0192v-73.557333h52.053334c12.151467-1.024 24.302933 2.082133 34.474666 8.772266v-0.580266z m91.374933 103.8336l75.502933-97.8944v96.733866l-75.502933 1.160534zM152.9856 68.096v390.382933H102.058667V68.096A68.164267 68.164267 0 0 1 169.949867 0.2048h443.528533c31.197867 0.034133 61.098667 12.458667 83.182933 34.542933l185.5488 185.821867a116.5312 116.5312 0 0 1 34.5088 82.875733v155.0336h-50.8928V303.445333c0-4.949333-0.580267-9.898667-1.706666-14.677333h-235.9296V52.8384a63.351467 63.351467 0 0 0-14.677334-1.706667H169.915733a16.964267 16.964267 0 0 0-16.964266 16.964267z m526.1312 21.230933v148.48h148.48l-148.48-148.48z m186.709333 861.354667V899.754667h50.8928v50.926933a68.164267 68.164267 0 0 1-67.8912 67.8912H169.915733a68.164267 68.164267 0 0 1-67.857066-67.925333v-50.858667h50.926933v50.858667c0 9.386667 7.5776 16.9984 16.964267 16.9984h678.912a16.964267 16.964267 0 0 0 16.964266-16.964267zM326.656 169.949867l133.2224 76.936533a19.797333 19.797333 0 0 1 10.205867 17.271467 20.3776 20.3776 0 0 1-10.205867 17.5104L326.656 358.6048a20.0704 20.0704 0 0 1-30.276267-18.944V186.641067a19.524267 19.524267 0 0 1 9.898667-16.725334 20.0704 20.0704 0 0 1 20.3776 0z"
    fill="#2c2c2c" p-id="9345"></path>
</svg>