<?xml version="1.0" standalone="no"?><!DOCTYPE svg PUBLIC "-//W3C//DTD SVG 1.1//EN" "http://www.w3.org/Graphics/SVG/1.1/DTD/svg11.dtd"><svg t="1734276966800" class="icon" viewBox="0 0 1024 1024" version="1.1" xmlns="http://www.w3.org/2000/svg" p-id="79038" xmlns:xlink="http://www.w3.org/1999/xlink" width="200" height="200"><path d="M151.552 987.904h720.896V36.096H151.552z m115.2-38.4h-76.8v-115.2h76.8z m0-153.6h-76.8v-115.2h76.8z m0-153.6h-76.8v-115.2h76.8z m0-153.6h-76.8v-115.2h76.8z m0-153.6h-76.8v-115.2h76.8z m0-153.6h-76.8v-115.2h76.8z m460.8 768h-422.4v-268.8h422.4z m0-307.2h-422.4v-268.8h422.4z m0-307.2h-422.4V66.304h422.4z m115.2 614.4h-76.8v-115.2h76.8z m0-153.6h-76.8v-115.2h76.8z m0-153.6h-76.8v-115.2h76.8z m0-153.6h-76.8v-115.2h76.8z m0-153.6h-76.8v-115.2h76.8z m0-153.6h-76.8v-115.2h76.8z" fill="#030000" p-id="79039"></path><path d="M343.552 296.96h345.6V104.704h-345.6v192.256" fill="#030000" p-id="79040"></path><path d="M689.152 104.704h-345.6v192.256h345.6V104.704M343.552 603.648h345.6v-191.744h-345.6v191.744" fill="#030000" p-id="79041"></path><path d="M689.152 411.904h-345.6v191.744h345.6v-191.744M343.552 911.104h345.6v-192h-345.6v192" fill="#030000" p-id="79042"></path><path d="M689.152 719.104h-345.6v192h345.6v-192" fill="#030000" p-id="79043"></path></svg>