<?xml version="1.0" standalone="no"?><!DOCTYPE svg PUBLIC "-//W3C//DTD SVG 1.1//EN" "http://www.w3.org/Graphics/SVG/1.1/DTD/svg11.dtd"><svg t="1734276767175" class="icon" viewBox="0 0 1024 1024" version="1.1" xmlns="http://www.w3.org/2000/svg" p-id="74149" xmlns:xlink="http://www.w3.org/1999/xlink" width="200" height="200"><path d="M281.268559 558.40171h71.639862v65.923269h-71.639862zM281.268559 729.899513c0 14.473928 11.554816 26.272004 26.028745 26.393633H352.786792v-98.884903h-71.639862v72.49127zM352.786792 426.555173h-45.489488c-14.473928 0.12163-26.028745 11.919705-26.028745 26.393633V525.440076H352.786792v-98.884903zM385.748426 756.293146H627.669795V426.555173H385.748426v329.737973z m82.464901-214.676327c0-8.878964 6.324742-12.771113 14.473928-8.878964l88.059865 44.151562c16.176743 8.270816 15.811854 21.406818 0.121629 29.312745l-12.892742 6.68963-74.802233 37.218672c-8.270816 3.892149-14.838817 0-14.838817-8.878964v-99.614681z" fill="#2c2c2c" p-id="74150"></path><path d="M636.548759 55.21986H179.829433C156.84143 55.21986 138.232094 73.829196 138.232094 96.817199v830.243972c0 22.988003 18.609336 41.597339 41.597339 41.59734H844.170567c22.988003 0 41.597339-18.609336 41.597339-41.59734v-622.743794c-97.425347-97.303718-151.915429-151.915429-249.219147-249.097517z m139.265946 694.748545c0 10.46015-4.135408 20.433781-11.554817 27.853189-7.419408 7.297779-17.514669 11.433187-27.974819 11.311557H287.83656c-21.771707-0.12163-39.408006-17.757928-39.529635-39.529635V432.758285c0-10.46015 4.135408-20.433781 11.554816-27.853189 7.419408-7.297779 17.514669-11.433187 27.974819-11.311558h448.448509c21.650077 0.12163 39.164746 17.514669 39.529636 39.286376v317.088491zM636.548759 304.317377V138.171279l166.024468 166.146098H636.548759z" fill="#2c2c2c" p-id="74151"></path><path d="M660.631429 558.40171h82.100012v65.923269h-82.100012zM716.702696 426.555173h-56.071267V525.440076h82.100012v-72.612899c0-14.352298-11.554816-26.150374-26.028745-26.272004zM660.753059 756.293146h56.071267c14.473928-0.12163 26.028745-11.919705 26.028744-26.393633v-72.612899h-81.978382v99.006532z" fill="#2c2c2c" p-id="74152"></path></svg>