<?xml version="1.0" standalone="no"?><!DOCTYPE svg PUBLIC "-//W3C//DTD SVG 1.1//EN" "http://www.w3.org/Graphics/SVG/1.1/DTD/svg11.dtd"><svg t="1734357006312" class="icon" viewBox="0 0 1024 1024" version="1.1" xmlns="http://www.w3.org/2000/svg" p-id="11124" xmlns:xlink="http://www.w3.org/1999/xlink" width="200" height="200"><path d="M682.667 89.463l149.452 149.47H682.633V89.463zM153.6 68.267V460.8h-51.2V68.267C102.4 30.72 133.12 0 170.667 0H616.72a117.93 117.93 0 0 1 83.439 34.577l186.88 186.88a118.067 118.067 0 0 1 34.56 83.422v155.887h-51.2V304.862c0-5.052-0.683-9.95-1.775-14.763H631.467V52.958A67.004 67.004 0 0 0 616.72 51.2H170.667c-9.216 0-17.067 7.817-17.067 17.067z m716.8 887.466v-51.2h51.2v51.2c0 37.547-30.72 68.267-68.267 68.267H170.667c-37.547 0-68.267-30.72-68.267-68.267v-51.2h51.2v51.2c0 9.268 7.834 17.067 17.067 17.067h682.666c9.25 0 17.067-7.8 17.067-17.067zM0 853.333V512h1024v341.333H0z m710.537-60.86h35.993v-219.63h-35.993v219.63z m-101.172 0l78.132-219.613H648.43l-60.314 179.012h-0.904l-60.28-179.012h-39.082l78.148 219.614h43.366z m-161.467 0h38.45L402.365 572.86h-40.91L277.47 792.474h38.451l20.002-55.057h91.972l20.003 55.057zM381.44 611.602h1.229l34.474 96.29h-70.45l34.747-96.29z m146.074-207.036h-45.859v-14.387h-19.029v14.387h-31.47v-14.387H350.89v14.387H319.42v-14.387h-19.456v14.387h-45.858V145.562h45.858v14.387h19.456v-14.387h31.47v14.387h80.265v-14.387h31.471v14.387h19.03v-14.387h45.858v259.003z m-64.888-28.774h19.03v-28.774h-19.03v28.774z m0-43.162h19.03v-28.791h-19.03v28.791z m0-57.566v14.388h19.03v-28.775h-19.03v14.387z m0-28.791h19.03v-28.774h-19.03v28.774z m0-43.145h19.03v-28.791h-19.03v28.791z m-31.47 57.55v-86.341H350.89v100.727h80.264v-14.387zM350.89 375.79h80.264v-86.34h-80.264v86.34z m-50.944-172.68h19.473v-28.792h-19.473v28.791z m0 43.161h19.473v-28.774h-19.473v28.774z m19.473 28.791v-14.387h-19.456v28.775h19.456v-14.388z m-19.473 57.566h19.473v-28.791h-19.473v28.791z m0 43.162h19.473v-28.774h-19.473v28.774z" p-id="11125"></path></svg>