<?xml version="1.0" standalone="no"?><!DOCTYPE svg PUBLIC "-//W3C//DTD SVG 1.1//EN" "http://www.w3.org/Graphics/SVG/1.1/DTD/svg11.dtd"><svg t="1734270528519" class="icon" viewBox="0 0 1024 1024" version="1.1" xmlns="http://www.w3.org/2000/svg" p-id="48235" xmlns:xlink="http://www.w3.org/1999/xlink" width="200" height="200"><path d="M733.039877 277.760025h245.119864a18.23999 18.23999 0 0 0 12.719992-31.199982L745.83987 5.280177a18.15999 18.15999 0 0 0-30.959983 12.959993v241.279866a18.23999 18.23999 0 0 0 18.15999 18.239989z" p-id="48236"></path><path d="M742.719872 323.28a73.279959 73.279959 0 0 1-73.43996-73.119959V0.00018H271.920134a72.959959 72.959959 0 0 0-73.11996 72.799959v181.0399a23.999987 23.999987 0 0 0 23.999987 23.999986h277.839845a23.999987 23.999987 0 0 1 23.999987 23.999987v514.799713a23.999987 23.999987 0 0 1-23.999987 23.999987H222.720161a23.999987 23.999987 0 0 0-23.999987 23.999987v86.559952a72.959959 72.959959 0 0 0 73.19996 72.799959h655.039635a72.959959 72.959959 0 0 0 73.119959-72.799959V347.519987a23.999987 23.999987 0 0 0-23.999986-23.999987z" p-id="48237"></path><path d="M460.160029 743.999766V373.919972a31.999982 31.999982 0 0 0-31.999982-31.999982H55.920254a31.999982 31.999982 0 0 0-31.999982 31.999982V743.999766a31.999982 31.999982 0 0 0 31.999982 31.999982h372.159793a31.999982 31.999982 0 0 0 32.079982-31.999982zM264.800138 645.83982l-144.87992-0.399999a26.159985 26.159985 0 0 1-26.159985-26.319986V498.479903a26.159985 26.159985 0 0 1 26.799985-26.479986l143.99992 0.4a26.239985 26.239985 0 0 1 26.239985 26.239985v120.719933h0.48a26.319985 26.319985 0 0 1-26.479985 26.479985z m125.03993-24.959986c0 11.199994-9.039995 18.23999-15.999991 12.559993l-61.919966-48.799972a5.679997 5.679997 0 0 1-1.839999-3.759998v-50.959972a4.319998 4.319998 0 0 1 1.839999-3.759998l62.159966-48.479973c7.039996-5.599997 15.999991 1.439999 15.999991 12.719993z" p-id="48238"></path></svg>